<svg data-logo="logo" xmlns="http://www.w3.org/2000/svg" viewBox="0 0 321 43">
        <g style="opacity: 1;" id="logogram" transform="translate(0, 1) rotate(0)"><path d="M45.8693 4.61295C46.667 3.72652 47.5535 2.99522 48.4621 2.41904C50.0576 1.42181 51.7418 0.889954 53.4704 0.889954V15.3609C52.2072 10.9731 49.4814 7.20574 45.8693 4.61295ZM67.3873 40.89H16.1296C7.7086 40.89 0.905273 34.0645 0.905273 25.6656C0.905273 17.6213 7.15458 11.0174 15.0659 10.4634V0.889954C16.8388 0.889954 18.5895 1.39965 20.2294 2.41904C21.138 2.97306 22.0244 3.70436 22.8222 4.54646C26.0798 2.26391 30.0244 0.934275 34.3014 0.934275C34.3014 10.1753 30.9773 20.9232 20.1629 20.9454H34.1906C33.7917 19.1503 32.1518 17.8207 30.2017 17.7985H38.3568C36.4067 17.7985 34.7668 19.1503 34.3679 20.9675H47.4427C50.0576 20.9675 52.6504 21.4772 55.0881 22.4966C57.5036 23.4938 59.7197 24.9786 61.559 26.8179C63.4205 28.6794 64.8831 30.8733 65.8803 33.2888C66.8776 35.6822 67.3873 38.275 67.3873 40.89ZM23.6864 10.7293C24.0188 11.5936 24.9053 12.5686 26.1463 13.2778C27.3873 13.9869 28.6726 14.275 29.5812 14.142C29.2488 13.2778 28.3623 12.3027 27.1213 11.5936C25.8803 10.8844 24.595 10.5963 23.6864 10.7293ZM42.3457 13.2778C41.1047 13.9869 39.8194 14.275 38.9108 14.142C39.2432 13.2778 40.1297 12.3027 41.3706 11.5936C42.6116 10.8844 43.897 10.5963 44.8055 10.7293C44.4953 11.5936 43.5867 12.5686 42.3457 13.2778Z" fill="#FF8080"></path></g>
        <g style="opacity: 1;" id="logotype" transform="translate(74, 8.5)"><path fill="#24cddb" d="M12.60 26L6.84 26L15.54 0.54L22.37 0.54L31.29 26L25.50 26L21.42 13.71Q20.68 11.34 19.92 8.51Q19.16 5.68 18.32 2.33L18.32 2.33L19.45 2.33Q18.65 5.70 17.94 8.54Q17.23 11.39 16.53 13.71L16.53 13.71L12.60 26ZM25.86 20.09L12.27 20.09L12.27 16.00L25.86 16.00L25.86 20.09ZM37.37 26L32.16 26L32.16 0.54L48.91 0.54L48.91 4.86L37.37 4.86L37.37 11.97L47.78 11.97L47.78 16.22L37.37 16.22L37.37 26ZM56.00 11.13L52.10 11.13L51.57 0.54L56.51 0.54L56.00 11.13ZM67.48 26.38L67.48 26.38Q65.18 26.38 63.40 25.72Q61.62 25.06 60.49 23.80Q59.37 22.55 59.04 20.77L59.04 20.77L63.81 19.95Q64.18 21.28 65.12 21.95Q66.06 22.62 67.64 22.62L67.64 22.62Q69.09 22.62 69.94 22.06Q70.80 21.51 70.80 20.65L70.80 20.65Q70.80 19.90 70.19 19.42Q69.59 18.94 68.34 18.69L68.34 18.69L65.04 18.00Q62.27 17.44 60.90 16.08Q59.54 14.72 59.54 12.58L59.54 12.58Q59.54 10.74 60.54 9.41Q61.55 8.09 63.35 7.37Q65.14 6.65 67.57 6.65L67.57 6.65Q69.82 6.65 71.48 7.28Q73.14 7.90 74.17 9.05Q75.19 10.19 75.53 11.75L75.53 11.75L70.99 12.55Q70.70 11.58 69.87 10.95Q69.04 10.33 67.64 10.33L67.64 10.33Q66.37 10.33 65.52 10.86Q64.66 11.39 64.66 12.26L64.66 12.26Q64.66 12.99 65.22 13.49Q65.77 13.99 67.12 14.26L67.12 14.26L70.56 14.94Q73.33 15.51 74.68 16.78Q76.03 18.05 76.03 20.10L76.03 20.10Q76.03 21.98 74.93 23.39Q73.84 24.80 71.92 25.59Q70.00 26.38 67.48 26.38ZM92.29 26L92.29 26L85.71 26L85.71 21.51L92.05 21.51Q94.52 21.51 96.18 20.63Q97.85 19.76 98.69 17.93Q99.52 16.10 99.52 13.25L99.52 13.25Q99.52 10.41 98.68 8.59Q97.83 6.77 96.18 5.90Q94.53 5.03 92.09 5.03L92.09 5.03L85.59 5.03L85.59 0.54L92.40 0.54Q96.22 0.54 98.98 2.07Q101.74 3.60 103.23 6.44Q104.72 9.29 104.72 13.25L104.72 13.25Q104.72 17.23 103.23 20.09Q101.74 22.94 98.96 24.47Q96.17 26 92.29 26ZM83.36 0.54L88.57 0.54L88.57 26L83.36 26L83.36 0.54ZM111.57 26.38L111.57 26.38Q109.76 26.38 108.31 25.74Q106.87 25.09 106.04 23.82Q105.21 22.55 105.21 20.65L105.21 20.65Q105.21 19.06 105.80 17.98Q106.39 16.91 107.41 16.26Q108.42 15.61 109.71 15.27Q111.00 14.93 112.42 14.79L112.42 14.79Q114.08 14.62 115.10 14.47Q116.11 14.33 116.58 14.01Q117.05 13.70 117.05 13.08L117.05 13.08L117.05 12.99Q117.05 12.17 116.71 11.61Q116.37 11.05 115.70 10.75Q115.04 10.45 114.06 10.45L114.06 10.45Q113.07 10.45 112.34 10.75Q111.60 11.05 111.14 11.54Q110.68 12.04 110.46 12.65L110.46 12.65L105.76 11.87Q106.25 10.21 107.40 9.05Q108.54 7.88 110.24 7.27Q111.94 6.65 114.06 6.65L114.06 6.65Q115.62 6.65 117.07 7.02Q118.52 7.39 119.68 8.16Q120.83 8.93 121.51 10.16Q122.18 11.39 122.18 13.13L122.18 13.13L122.18 26L117.33 26L117.33 23.35L117.16 23.35Q116.70 24.24 115.93 24.91Q115.16 25.59 114.07 25.98Q112.99 26.38 111.57 26.38ZM113.02 22.77L113.02 22.77Q114.23 22.77 115.15 22.29Q116.06 21.81 116.58 20.99Q117.09 20.17 117.09 19.16L117.09 19.16L117.09 17.10Q116.87 17.27 116.41 17.40Q115.94 17.54 115.38 17.64Q114.82 17.75 114.27 17.83Q113.72 17.92 113.29 17.97L113.29 17.97Q112.35 18.10 111.64 18.41Q110.92 18.72 110.53 19.22Q110.13 19.73 110.13 20.51L110.13 20.51Q110.13 21.25 110.51 21.75Q110.89 22.26 111.53 22.51Q112.17 22.77 113.02 22.77ZM122.44 6.89L133.77 6.89L133.77 10.81L122.44 10.81L122.44 6.89ZM125.07 20.86L125.07 2.35L130.19 2.35L130.19 20.41Q130.19 21.32 130.60 21.75Q131.00 22.19 131.94 22.19L131.94 22.19Q132.23 22.19 132.76 22.11Q133.29 22.04 133.56 21.97L133.56 21.97L134.30 25.81Q133.44 26.07 132.60 26.17Q131.75 26.27 130.98 26.27L130.98 26.27Q128.11 26.27 126.59 24.87Q125.07 23.47 125.07 20.86L125.07 20.86ZM140.16 26.38L140.16 26.38Q138.34 26.38 136.90 25.74Q135.46 25.09 134.63 23.82Q133.80 22.55 133.80 20.65L133.80 20.65Q133.80 19.06 134.39 17.98Q134.98 16.91 135.99 16.26Q137.01 15.61 138.30 15.27Q139.59 14.93 141.01 14.79L141.01 14.79Q142.67 14.62 143.69 14.47Q144.70 14.33 145.17 14.01Q145.64 13.70 145.64 13.08L145.64 13.08L145.64 12.99Q145.64 12.17 145.30 11.61Q144.96 11.05 144.29 10.75Q143.63 10.45 142.65 10.45L142.65 10.45Q141.66 10.45 140.92 10.75Q140.19 11.05 139.73 11.54Q139.27 12.04 139.05 12.65L139.05 12.65L134.35 11.87Q134.84 10.21 135.99 9.05Q137.13 7.88 138.83 7.27Q140.53 6.65 142.65 6.65L142.65 6.65Q144.21 6.65 145.66 7.02Q147.11 7.39 148.27 8.16Q149.42 8.93 150.09 10.16Q150.77 11.39 150.77 13.13L150.77 13.13L150.77 26L145.92 26L145.92 23.35L145.74 23.35Q145.28 24.24 144.51 24.91Q143.74 25.59 142.66 25.98Q141.57 26.38 140.16 26.38ZM141.61 22.77L141.61 22.77Q142.82 22.77 143.74 22.29Q144.65 21.81 145.16 20.99Q145.68 20.17 145.68 19.16L145.68 19.16L145.68 17.10Q145.45 17.27 144.99 17.40Q144.53 17.54 143.97 17.64Q143.40 17.75 142.86 17.83Q142.31 17.92 141.88 17.97L141.88 17.97Q140.94 18.10 140.22 18.41Q139.51 18.72 139.11 19.22Q138.72 19.73 138.72 20.51L138.72 20.51Q138.72 21.25 139.10 21.75Q139.47 22.26 140.11 22.51Q140.75 22.77 141.61 22.77ZM153.07 13.49L164.66 13.49L164.66 17.57L153.07 17.57L153.07 13.49ZM181.36 26L174.54 26L165.62 0.54L171.41 0.54L175.48 12.82Q176.21 15.15 176.96 17.94Q177.72 20.74 178.55 24.05L178.55 24.05L177.42 24.05Q178.25 20.70 178.96 17.93Q179.68 15.15 180.38 12.82L180.38 12.82L184.31 0.54L190.07 0.54L181.36 26ZM196.15 26.38L196.15 26.38Q194.34 26.38 192.90 25.74Q191.45 25.09 190.62 23.82Q189.80 22.55 189.80 20.65L189.80 20.65Q189.80 19.06 190.39 17.98Q190.97 16.91 191.99 16.26Q193.01 15.61 194.30 15.27Q195.59 14.93 197.01 14.79L197.01 14.79Q198.67 14.62 199.68 14.47Q200.70 14.33 201.17 14.01Q201.64 13.70 201.64 13.08L201.64 13.08L201.64 12.99Q201.64 12.17 201.30 11.61Q200.96 11.05 200.29 10.75Q199.62 10.45 198.65 10.45L198.65 10.45Q197.66 10.45 196.92 10.75Q196.19 11.05 195.73 11.54Q195.26 12.04 195.04 12.65L195.04 12.65L190.34 11.87Q190.84 10.21 191.98 9.05Q193.13 7.88 194.83 7.27Q196.53 6.65 198.65 6.65L198.65 6.65Q200.20 6.65 201.66 7.02Q203.11 7.39 204.26 8.16Q205.42 8.93 206.09 10.16Q206.77 11.39 206.77 13.13L206.77 13.13L206.77 26L201.91 26L201.91 23.35L201.74 23.35Q201.28 24.24 200.51 24.91Q199.74 25.59 198.66 25.98Q197.57 26.38 196.15 26.38ZM197.61 22.77L197.61 22.77Q198.82 22.77 199.73 22.29Q200.65 21.81 201.16 20.99Q201.67 20.17 201.67 19.16L201.67 19.16L201.67 17.10Q201.45 17.27 200.99 17.40Q200.53 17.54 199.96 17.64Q199.40 17.75 198.85 17.83Q198.31 17.92 197.88 17.97L197.88 17.97Q196.94 18.10 196.22 18.41Q195.50 18.72 195.11 19.22Q194.72 19.73 194.72 20.51L194.72 20.51Q194.72 21.25 195.09 21.75Q195.47 22.26 196.11 22.51Q196.75 22.77 197.61 22.77ZM215.45 26.24L215.45 26.24Q213.46 26.24 211.98 25.38Q210.49 24.51 209.68 22.90Q208.87 21.28 208.87 19.04L208.87 19.04L208.87 6.89L213.99 6.89L213.99 18.16Q213.99 19.93 214.92 20.94Q215.84 21.95 217.45 21.95L217.45 21.95Q218.54 21.95 219.38 21.48Q220.21 21.01 220.68 20.11Q221.15 19.22 221.15 17.95L221.15 17.95L221.15 6.89L226.28 6.89L226.28 26L221.44 26L221.38 21.23L221.67 21.23Q220.91 23.64 219.37 24.94Q217.82 26.24 215.45 26.24ZM228.38 0.54L233.51 0.54L233.51 26L228.38 26L228.38 0.54ZM233.74 6.89L245.08 6.89L245.08 10.81L233.74 10.81L233.74 6.89ZM236.38 20.86L236.38 2.35L241.50 2.35L241.50 20.41Q241.50 21.32 241.91 21.75Q242.31 22.19 243.25 22.19L243.25 22.19Q243.54 22.19 244.07 22.11Q244.60 22.04 244.87 21.97L244.87 21.97L245.61 25.81Q244.75 26.07 243.90 26.17Q243.06 26.27 242.29 26.27L242.29 26.27Q239.42 26.27 237.90 24.87Q236.38 23.47 236.38 20.86L236.38 20.86Z"></path></g>
        
      </svg>